<svg width="20" height="20" viewBox="0 0 20 20" fill="none" xmlns="http://www.w3.org/2000/svg">
  <path d="M10 12.5C11.3807 12.5 12.5 11.3807 12.5 10C12.5 8.61929 11.3807 7.5 10 7.5C8.61929 7.5 7.5 8.61929 7.5 10C7.5 11.3807 8.61929 12.5 10 12.5Z" stroke="currentColor" stroke-width="1.5" stroke-linecap="round" stroke-linejoin="round"/>
  <path d="M16.167 12.5C16.0473 12.7793 16.0154 13.0871 16.0751 13.3836C16.1348 13.6801 16.2835 13.9522 16.5 14.167L16.542 14.208C16.7137 14.3797 16.8495 14.5854 16.9415 14.8132C17.0335 15.041 17.0801 15.2863 17.0801 15.5335C17.0801 15.7807 17.0335 16.026 16.9415 16.2538C16.8495 16.4816 16.7137 16.6873 16.542 16.859C16.3703 17.0307 16.1646 17.1665 15.9368 17.2585C15.709 17.3505 15.4637 17.3971 15.2165 17.3971C14.9693 17.3971 14.724 17.3505 14.4962 17.2585C14.2684 17.1665 14.0627 17.0307 13.891 16.859L13.85 16.817C13.6352 16.6005 13.3631 16.4518 13.0666 16.3921C12.7701 16.3324 12.4623 16.3643 12.183 16.484H12.083C11.8104 16.5974 11.5068 16.6252 11.2179 16.5635C10.929 16.5017 10.6688 16.3533 10.475 16.1415V16.1415C10.2812 15.9297 10.1647 15.6654 10.1418 15.3859C10.1189 15.1064 10.1908 14.8268 10.35 14.592L10.35 14.55C10.4697 14.2707 10.5016 13.9629 10.4419 13.6664C10.3822 13.3699 10.2335 13.0978 10.017 12.883C9.80047 12.6682 9.52838 12.5195 9.23188 12.4598C8.93539 12.4001 8.62759 12.432 8.34827 12.5517H8.30661C8.07205 12.6612 7.80772 12.689 7.55888 12.6314C7.31003 12.5738 7.08489 12.4335 6.91661 12.2332V12.2332C6.74834 12.0329 6.64615 11.7825 6.62634 11.5197C6.60654 11.2568 6.67019 10.9949 6.80827 10.7665L6.84994 10.725C6.96955 10.4457 7.00141 10.1379 6.94173 9.84142C6.88205 9.54493 6.73339 9.27284 6.51661 9.05833C6.29982 8.84382 6.02773 8.69516 5.73124 8.63548C5.43475 8.5758 5.12695 8.60766 4.84744 8.72727L4.80577 8.76894C4.57744 8.86847 4.32073 8.88627 4.08141 8.81895C3.8421 8.75164 3.63241 8.60304 3.49161 8.39494V8.39494C3.3508 8.18684 3.28736 7.93269 3.31258 7.67794C3.3378 7.42318 3.45021 7.18425 3.63327 7.00161L3.67494 6.95994C3.89141 6.74346 4.04008 6.47137 4.09976 6.17488C4.15944 5.87839 4.12758 5.57059 4.00794 5.29161V5.24994C3.89434 5.01562 3.86648 4.74962 3.92789 4.49779C3.9893 4.24597 4.13713 4.02225 4.34161 3.86661V3.86661C4.54608 3.71098 4.79678 3.63289 5.05327 3.64572C5.30976 3.65854 5.55194 3.76151 5.73994 3.93994L5.78161 3.98161C5.99982 4.19808 6.27191 4.34675 6.5684 4.40643C6.86489 4.46611 7.17269 4.43425 7.45161 4.31461H7.49327C7.7659 4.20122 8.06948 4.17344 8.35843 4.23518C8.64737 4.29692 8.90756 4.44527 9.10161 4.65711V4.65711C9.29566 4.86894 9.41215 5.13321 9.43504 5.41271C9.45794 5.6922 9.38607 5.97183 9.22661 6.20661V6.24827C9.10695 6.52758 9.07509 6.83538 9.13477 7.13187C9.19445 7.42836 9.34312 7.70045 9.55994 7.91494C9.77675 8.12944 10.0488 8.2781 10.3453 8.33778C10.6418 8.39746 10.9496 8.3656 11.2289 8.24594H11.2706C11.5051 8.13648 11.7695 8.10862 12.0183 8.17003C12.267 8.23144 12.4907 8.37927 12.6464 8.58377V8.58377C12.802 8.78827 12.8801 9.03897 12.8673 9.29546C12.8544 9.55194 12.7515 9.79412 12.573 9.98211L12.5314 10.0238C12.3149 10.242 12.1662 10.5141 12.1065 10.8106C12.0468 11.1071 12.0787 11.4149 12.198 11.6942V11.7359C12.3114 12.0085 12.3392 12.3121 12.2774 12.601C12.2157 12.8899 12.0673 13.1501 11.8555 13.3439V13.3439C11.6437 13.5377 11.3794 13.6542 11.0999 13.6771C10.8204 13.7 10.5408 13.6281 10.306 13.4689L10.2643 13.4272C9.98498 13.3076 9.67718 13.2757 9.38069 13.3354C9.0842 13.3951 8.81211 13.5438 8.59761 13.7606C8.3831 13.9774 8.23444 14.2495 8.17476 14.546C8.11508 14.8425 8.14694 15.1503 8.26661 15.4296V15.4712C8.37759 15.7058 8.40545 15.9701 8.34404 16.219C8.28263 16.4678 8.1348 16.6915 7.9303 16.8472V16.8472C7.7258 17.0028 7.47509 17.0809 7.21861 17.068C6.96212 17.0552 6.71995 16.9522 6.53161 16.7738L6.48994 16.7322C6.27346 16.5157 6.00137 16.367 5.70488 16.3073C5.40839 16.2476 5.10059 16.2795 4.82161 16.3991H4.77994C4.50728 16.5125 4.20369 16.5403 3.91475 16.4786C3.62581 16.4168 3.36562 16.2685 3.17161 16.0566V16.0566C2.97759 15.8448 2.86111 15.5805 2.83821 15.301C2.81531 15.0215 2.88719 14.7419 3.04661 14.5071L3.08827 14.4655C3.20794 14.1862 3.2398 13.8784 3.18012 13.5819C3.12044 13.2854 2.97177 13.0133 2.75494 12.7988C2.53812 12.5843 2.26603 12.4356 1.96954 12.3759C1.67305 12.3163 1.36525 12.3481 1.08594 12.4678H1.04427C0.809945 12.5774 0.545612 12.6052 0.296779 12.5436C0.047946 12.4819 -0.177763 12.3341 -0.333596 12.1296V12.1296" stroke="currentColor" stroke-width="1.5" stroke-linecap="round" stroke-linejoin="round"/>
</svg>
